# xmcd
#
# Track frame offsets:
#	182
#	11107
#	25382
#	38712
#	57020
#	68197
#	79092
#	89755
#	101277
#	111090
#	122275
#	133367
#	147115
#	160155
#
# Disc length: 2268
#
# Revision: 7
# Processed by: cddbd v1.5.1PL0 Copyright (c) Steve Scherf et al.
# Submitted via: CDex 1.40Beta9
# Normalized: r5:DSETVAR1,TSWAP
#
DISCID=b708da0e
DTITLE=Various Artist - Country Ballads [CD1]
DYEAR=1900
DGENRE=Country
TTITLE0=Hank Locklin - send me the pillow
TTITLE1=Spears, Billie Jo - crying time
TTITLE2=Patti Page - tennessee waltz
TTITLE3=Skeeter Davis - just when i needed you most
TTITLE4=George Jones - tender years
TTITLE5=Sammi Smith - help me make it trough the night
TTITLE6=Freddy Fender - a man can cry
TTITLE7=Dolly Parton - makin' beleive
TTITLE8=Willie Nelson - let's pretend
TTITLE9=Anne Murray - last thing on my ming
TTITLE10=Wanda Jackson - tears will be the chaser
TTITLE11=Kenny Rogers - i'm gonna sing you a sad song suzy
TTITLE12=fingerprints - Patsy Cline
TTITLE13=it's only make beleive - Conway Twitt
EXTD=ID3G: 2
EXTT0=
EXTT1=
EXTT2=
EXTT3=
EXTT4=
EXTT5=
EXTT6=
EXTT7=
EXTT8=
EXTT9=
EXTT10=
EXTT11=
EXTT12=
EXTT13=
PLAYORDER=
